<?xml version="1.0" standalone="no"?>
<!DOCTYPE svg PUBLIC "-//W3C//DTD SVG 20010904//EN"
 "http://www.w3.org/TR/2001/REC-SVG-20010904/DTD/svg10.dtd">
<svg version="1.0" xmlns="http://www.w3.org/2000/svg"
 width="800.000000pt" height="800.000000pt" viewBox="0 0 800.000000 800.000000"
 preserveAspectRatio="xMidYMid meet">
<metadata>
Created by potrace 1.11, written by Peter Selinger 2001-2013
</metadata>
<g transform="translate(0.000000,800.000000) scale(0.100000,-0.100000)"
fill="#000000" stroke="none">
<path d="M3629 7996 c-2 -2 -47 -7 -99 -10 -52 -4 -102 -9 -110 -11 -8 -2 -42
-6 -74 -10 -318 -34 -774 -165 -1104 -317 -48 -21 -104 -46 -124 -55 l-38 -16
0 -875 c0 -831 1 -874 18 -861 9 8 22 19 27 25 10 11 143 125 181 154 49 39
164 119 207 146 27 16 63 38 80 48 112 68 427 208 499 221 10 2 22 6 26 9 18
11 251 65 342 80 52 8 111 18 130 22 19 3 141 7 270 8 236 3 393 -11 560 -49
14 -3 36 -8 50 -11 14 -3 69 -18 122 -33 l97 -28 5 26 c3 14 8 49 12 76 3 28
7 52 9 55 2 3 6 34 10 70 4 36 8 67 10 70 2 3 6 34 10 70 4 36 8 67 10 70 2 3
6 29 10 59 4 30 8 61 10 70 6 34 15 98 20 141 3 25 12 83 20 130 8 47 16 101
19 120 7 52 45 312 50 336 2 12 7 45 11 75 4 30 9 57 11 61 3 4 -15 12 -38 18
-24 6 -50 13 -58 15 -8 3 -33 7 -55 11 -22 3 -43 8 -46 10 -4 2 -24 6 -44 10
-21 3 -47 8 -59 10 -38 9 -130 23 -181 29 -119 13 -152 17 -180 22 -35 6 -610
14 -616 9z"/>
<path d="M5175 7777 c-2 -7 -7 -32 -10 -57 -3 -25 -8 -54 -9 -65 -2 -11 -9
-58 -15 -105 -6 -47 -16 -107 -21 -135 -5 -27 -12 -72 -15 -100 -3 -27 -7 -57
-9 -65 -3 -8 -7 -37 -11 -65 -5 -44 -17 -120 -40 -270 -4 -22 -8 -53 -10 -68
-2 -15 -7 -47 -10 -70 -3 -23 -10 -67 -15 -97 -5 -30 -12 -75 -15 -100 -3 -25
-10 -70 -15 -100 -5 -30 -12 -77 -15 -105 l-6 -50 78 -38 c126 -62 278 -156
395 -245 134 -101 157 -122 284 -249 357 -359 608 -832 699 -1320 24 -128 30
-177 41 -307 6 -74 6 -324 0 -376 -3 -25 -8 -70 -11 -100 -2 -30 -7 -66 -9
-80 -3 -14 -7 -41 -10 -60 -14 -94 -68 -305 -104 -410 -242 -693 -781 -1264
-1453 -1540 -385 -158 -797 -221 -1213 -186 -542 45 -1077 278 -1495 651 -186
166 -406 439 -516 640 -15 28 -31 54 -35 59 -8 8 -1517 13 -1525 5 -6 -6 96
-277 142 -379 210 -462 469 -842 811 -1189 460 -465 994 -796 1612 -998 131
-42 229 -70 280 -79 14 -3 43 -10 65 -16 22 -5 49 -12 60 -14 11 -2 31 -6 45
-9 41 -8 192 -34 235 -39 45 -6 87 -11 190 -22 90 -10 583 -11 701 -2 94 8
265 30 334 43 263 50 422 91 615 156 259 89 568 233 776 364 9 5 34 20 55 31
44 25 275 188 344 243 481 386 835 819 1100 1346 52 105 100 204 107 220 7 17
21 51 32 78 46 108 152 429 165 501 2 12 11 48 19 81 9 33 18 71 21 85 2 14
13 75 25 135 11 61 23 139 26 175 4 36 8 71 11 78 26 81 25 767 -1 904 -3 12
-7 43 -9 68 -21 199 -95 521 -178 764 -77 229 -209 519 -317 701 -17 28 -38
64 -47 80 -29 53 -173 263 -230 338 -330 432 -737 791 -1188 1051 -174 101
-521 266 -557 266 -5 0 -17 4 -27 10 -44 25 -123 48 -127 37z"/>
<path d="M3557 5034 c-1 -1 -56 -4 -122 -8 -66 -3 -129 -7 -140 -10 -11 -2
-51 -7 -88 -11 -37 -3 -76 -8 -85 -10 -9 -1 -42 -6 -72 -10 -238 -31 -632
-138 -897 -244 -189 -75 -420 -188 -568 -278 -49 -31 -105 -64 -123 -74 -19
-11 -57 -36 -85 -57 -29 -21 -63 -45 -77 -53 -14 -9 -71 -52 -126 -95 -294
-229 -565 -510 -778 -806 -69 -97 -206 -314 -206 -328 0 -3 373 -5 829 -5
l830 0 33 34 c83 85 322 262 458 338 301 171 646 290 950 329 25 3 56 7 70 9
156 23 487 23 640 0 14 -2 45 -6 70 -9 25 -3 70 -10 100 -16 30 -6 66 -13 80
-16 54 -10 215 -56 298 -85 282 -99 548 -250 772 -437 106 -89 279 -272 360
-380 41 -56 79 -101 83 -102 4 0 10 8 14 18 4 9 18 35 33 57 71 107 167 319
234 519 27 81 66 232 81 316 29 167 35 229 41 407 l5 161 -78 59 c-399 303
-857 523 -1368 658 -88 23 -110 28 -170 40 -16 3 -50 10 -75 15 -48 10 -77 16
-149 26 -25 4 -55 8 -66 10 -11 2 -47 7 -80 10 -33 3 -71 8 -85 10 -58 9 -534
25 -543 18z"/>
</g>
</svg>
