<?xml version="1.0" standalone="no"?>
<!DOCTYPE svg PUBLIC "-//W3C//DTD SVG 20010904//EN"
 "http://www.w3.org/TR/2001/REC-SVG-20010904/DTD/svg10.dtd">
<svg version="1.0" xmlns="http://www.w3.org/2000/svg"
 width="350.000000pt" height="350.000000pt" viewBox="0 0 350.000000 350.000000"
 preserveAspectRatio="xMidYMid meet">
<metadata>
Created by potrace 1.11, written by Peter Selinger 2001-2013
</metadata>
<g transform="translate(0.000000,350.000000) scale(0.100000,-0.100000)"
fill="#000000" stroke="none">
<path d="M1555 3493 c-27 -4 -146 -25 -200 -37 -69 -14 -215 -61 -270 -85 -11
-5 -44 -20 -72 -32 l-53 -23 0 -383 0 -384 73 59 c84 69 136 103 229 148 239
117 545 144 791 70 53 -16 51 -17 62 64 3 25 11 72 16 105 10 61 14 89 24 160
3 22 7 49 9 60 2 11 7 43 10 70 4 28 9 61 11 75 18 88 19 86 -48 99 -170 33
-231 39 -397 38 -85 -1 -168 -3 -185 -4z"/>
<path d="M2315 3397 c-4 -12 -13 -63 -20 -122 -7 -50 -15 -105 -30 -200 -8
-49 -17 -110 -20 -135 -3 -25 -11 -74 -16 -109 -5 -35 -8 -65 -7 -66 2 -1 31
-16 64 -33 72 -36 175 -112 252 -186 158 -150 280 -379 323 -609 14 -76 19
-278 8 -344 -4 -26 -11 -65 -14 -87 -11 -68 -56 -188 -103 -281 -188 -366
-557 -599 -967 -611 -324 -9 -606 104 -835 335 -72 73 -179 212 -191 250 -3 8
-103 10 -340 9 l-337 -3 38 -95 c90 -225 205 -403 374 -578 232 -241 531 -411
851 -486 157 -37 244 -45 440 -41 188 4 218 7 325 32 36 8 74 16 86 19 32 6
174 53 214 71 162 71 292 145 404 230 93 71 284 268 352 363 181 253 281 509
324 825 5 33 7 143 5 245 -2 143 -8 208 -24 285 -12 55 -24 109 -26 121 -7 29
-54 175 -65 199 -69 153 -95 203 -140 275 -200 320 -491 566 -835 704 -59 24
-87 31 -90 23z"/>
<path d="M1648 2205 c-2 -2 -46 -6 -98 -9 -118 -7 -166 -13 -255 -32 -38 -9
-80 -17 -92 -20 -50 -10 -282 -95 -333 -123 -74 -40 -144 -80 -190 -109 -203
-128 -402 -333 -529 -544 l-23 -38 365 0 364 0 44 38 c110 96 267 183 409 226
144 43 197 50 355 50 113 -1 173 -7 274 -28 92 -20 241 -86 343 -151 71 -47
206 -173 265 -249 l30 -39 55 114 c31 63 59 128 63 144 5 17 10 35 12 40 16
48 40 206 42 275 l1 85 -72 51 c-206 145 -446 245 -678 284 -30 5 -66 12 -80
15 -14 3 -65 7 -115 11 -49 3 -105 7 -122 8 -18 2 -34 2 -35 1z"/>
</g>
</svg>
