<?xml version="1.0" standalone="no"?>
<!DOCTYPE svg PUBLIC "-//W3C//DTD SVG 20010904//EN"
 "http://www.w3.org/TR/2001/REC-SVG-20010904/DTD/svg10.dtd">
<svg version="1.0" xmlns="http://www.w3.org/2000/svg"
 width="260.000000pt" height="260.000000pt" viewBox="0 0 260.000000 260.000000"
 preserveAspectRatio="xMidYMid meet">
<metadata>
Created by potrace 1.11, written by Peter Selinger 2001-2013
</metadata>
<g transform="translate(0.000000,260.000000) scale(0.100000,-0.100000)"
fill="#000000" stroke="none">
<path d="M135 2580 c-65 -31 -97 -68 -121 -135 -7 -21 -10 -391 -9 -1155 0
-1069 1 -1127 19 -1162 24 -49 62 -87 111 -109 38 -18 94 -19 1169 -19 l1129
0 48 27 c48 26 88 73 109 126 7 20 10 382 10 1154 0 1100 -1 1125 -20 1163
-25 49 -61 85 -110 110 -38 19 -63 20 -1167 20 -1093 0 -1129 -1 -1168 -20z"/>
</g>
</svg>
